REM MD5 14aaefd4bde019f215d76736f9a52bc0
FILE "Ayakashi Ninden Kunoichiban (Japan) (Disc 1).bin" BINARY
  TRACK 01 MODE2/2352
    INDEX 01 00:00:00
  TRACK 02 AUDIO
    INDEX 00 60:40:03
    INDEX 01 60:42:03
  TRACK 03 AUDIO
    INDEX 00 64:29:43
    INDEX 01 64:31:43
REM LEADOUT 68:53:69
